Coordinates
version=1
nRows=4
nColumns=63
inDegrees=yes

Units are S.I. units (second, meters, Newtons, ...)
If the header above contains a line with 'inDegrees', this indicates whether rotational values are in degrees (yes) or radians (no).

endheader
time	pelvis_tilt	pelvis_list	pelvis_rotation	pelvis_tx	pelvis_ty	pelvis_tz	hip_flexion_r	hip_adduction_r	hip_rotation_r	knee_angle_r	knee_angle_r_beta	ankle_angle_r	subtalar_angle_r	mtp_angle_r	hip_flexion_l	hip_adduction_l	hip_rotation_l	knee_angle_l	knee_angle_l_beta	ankle_angle_l	subtalar_angle_l	mtp_angle_l	L5_S1_Flex_Ext	L5_S1_Lat_Bending	L5_S1_axial_rotation	L4_L5_Flex_Ext	L4_L5_Lat_Bending	L4_L5_axial_rotation	L3_L4_Flex_Ext	L3_L4_Lat_Bending	L3_L4_axial_rotation	L2_L3_Flex_Ext	L2_L3_Lat_Bending	L2_L3_axial_rotation	L1_L2_Flex_Ext	L1_L2_Lat_Bending	L1_L2_axial_rotation	L1_T12_Flex_Ext	L1_T12_Lat_Bending	L1_T12_axial_rotation	Abs_r3	Abs_r2	Abs_r1	Abs_t1	Abs_t2	neck_flexion	neck_bending	neck_rotation	arm_flex_r	arm_add_r	arm_rot_r	elbow_flex_r	pro_sup_r	wrist_flex_r	wrist_dev_r	arm_flex_l	arm_add_l	arm_rot_l	elbow_flex_l	pro_sup_l	wrist_flex_l	wrist_dev_l
      7.60000000	      4.52421957	     -1.47624740	    174.34562623	      2.46757037	      0.88798807	      0.58941939	     18.07659374	     -1.64803764	     -8.94177765	     28.36869638	      0.49512716	     24.43603184	     -0.22312059	      0.00000000	     10.11347597	      0.97458654	     -3.89124598	     14.68085096	      0.25622919	     17.42117697	    -18.55061314	      0.00000000	      0.00054297	     -0.28401382	     -1.01591553	      0.00100835	     -0.37773839	     -1.07941025	      0.00089204	     -0.69055121	     -1.07941025	      0.00062056	     -0.69055121	     -0.88892609	      0.00050420	     -0.57916099	     -0.82543137	      0.00031025	     -0.43993741	     -0.76193665	      0.00387836	     -3.21282118	     -5.65021739	      0.00000000	      0.00000000	     -0.00000000	      0.00000000	      0.00000000	     -4.33936235	     -4.43962485	      4.87096554	     25.36203596	     47.68144252	      0.00000000	      5.00000014	    -12.49479941	     -8.88750273	      6.73282293	     23.68043674	     53.73406905	      0.00000000	      5.00000014
      7.63333333	      4.59952241	     -1.17710053	    174.54253354	      2.46793074	      0.88767111	      0.58932477	     18.29697994	     -1.38988596	     -8.73254921	     28.44480057	      0.49645543	     24.24195289	     -0.31578693	      0.00000000	     10.13830373	      0.68789755	     -3.70695219	     14.59169070	      0.25467305	     17.58492977	    -18.55179682	      0.00000000	      0.00205308	     -0.25028774	     -1.02458665	      0.00381277	     -0.33288270	     -1.08862332	      0.00337300	     -0.60854962	     -1.08862332	      0.00234646	     -0.60854962	     -0.89651332	      0.00190649	     -0.51038676	     -0.83247665	      0.00117313	     -0.38769571	     -0.76843999	      0.01466492	     -2.83130499	     -5.69844358	      0.00000000	      0.00000000	     -0.00000000	      0.00000000	      0.00000000	     -4.08665702	     -4.71007699	      5.64075857	     24.92023320	     47.92573484	      0.00000000	      5.00000014	    -12.50079048	     -8.92676624	      6.83242960	     23.94329552	     53.80789276	      0.00000000	      5.00000014
      7.66666667	      4.66340331	     -0.81769323	    174.92961044	      2.46832704	      0.88740305	      0.58938081	     18.37978711	     -0.85733476	     -7.66724675	     28.20696587	      0.49230443	     23.76424474	     -1.62128817	      0.00000000	     10.31802502	      0.34074454	     -3.20615714	     14.82195237	      0.25869187	     17.77214136	    -18.57209998	      0.00000000	      0.00108180	     -0.21366016	     -1.08100045	      0.00200902	     -0.28416801	     -1.14856297	      0.00177729	     -0.51949331	     -1.14856297	      0.00123639	     -0.51949331	     -0.94587539	      0.00100456	     -0.43569580	     -0.87831286	      0.00061814	     -0.33095959	     -0.81075033	      0.00772721	     -2.41696646	     -6.01220018	      0.00000000	      0.00000000	     -0.00000000	      0.00000000	      0.00000000	     -3.41266673	     -6.07288070	     12.42025867	     24.24935366	     50.00065949	      0.00000000	      5.00000014	    -12.42133172	     -9.09019293	      7.69778067	     23.97584781	     54.28610743	      0.00000000	      5.00000014
      7.70000000	      4.71470692	     -0.53177644	    175.14326319	      2.46860007	      0.88711020	      0.58944905	     18.45592522	     -0.58750303	     -7.37404122	     28.08473755	      0.49017114	     23.62909783	     -1.45725451	      0.00000000	     10.39711578	      0.05706764	     -2.74906923	     14.92220751	      0.26044165	     17.96581037	    -18.58925909	      0.00000000	      0.00211547	     -0.18143386	     -1.09729032	      0.00392865	     -0.24130703	     -1.16587097	      0.00347551	     -0.44113828	     -1.16587097	      0.00241777	     -0.44113828	     -0.96012903	      0.00196443	     -0.36997992	     -0.89154839	      0.00120878	     -0.28104105	     -0.82296774	      0.01511061	     -2.05241608	     -6.10279959	      0.00000000	      0.00000000	     -0.00000000	      0.00000000	      0.00000000	     -3.37847706	     -6.20537789	     12.60063190	     24.15113792	     49.97602046	      0.00000000	      5.00000014	    -12.40960178	     -9.06923626	      7.74684494	     24.09322844	     54.10807227	      0.00000000	      5.00000014
